# xmcd CD database file
#
# Track frame offsets:
#	150
#	21894
#	39882
#	62448
#	89711
#	106866
#	127383
#	140261
#	167298
#	189312
#
# Disc length: 2892 seconds
#
# Revision: 0
# Processed by: cddbd v1.5.2PL0 Copyright (c) Steve Scherf et al.
# Submitted via: CDex 1.51
#
DISCID=7c0b4a0a
DTITLE=Mon Dyh - Murderer
DYEAR=1981
DGENRE=Blues
TTITLE0=Don't you break my heart
TTITLE1=Murderer
TTITLE2=Trying
TTITLE3=Magic Piano
TTITLE4=Just a Minute
TTITLE5=A Needle must not lay down
TTITLE6=One Second man
TTITLE7=Encountered the Edge
TTITLE8=All along the Watchtower
TTITLE9=Have you ever loved a Woman
EXTD=YEAR: 1981
EXTT0=
EXTT1=
EXTT2=
EXTT3=
EXTT4=
EXTT5=
EXTT6=
EXTT7=
EXTT8=
EXTT9=
PLAYORDER=
